# xmcd
#
# Track frame offsets:
#	150
#	13785
#	27821
#	53251
#
# Disc length: 1017 seconds
#
# Revision: 0
# Processed by: cddbd v1.5.2PL0 Copyright (c) Steve Scherf et al.
# Submitted via: EasyCDDAExtractor 10.0.3.1
#
DISCID=2003f704
DTITLE=MALGORZATA OSTROWSKA - SINGLE
DYEAR=1900
DGENRE=
TTITLE0=X
TTITLE1=X
TTITLE2=X
TTITLE3=X
EXTD=
EXTT0=
EXTT1=
EXTT2=
EXTT3=
PLAYORDER=
